<svg width="72" height="72" viewBox="0 0 72 72" fill="none" xmlns="http://www.w3.org/2000/svg">
<path d="M19.3615 14.2753H10.8309C10.0982 14.2753 9.50415 14.8693 9.50415 15.602C9.50415 16.3346 10.0982 16.9287 10.8309 16.9287H19.3615C20.0942 16.9287 20.6882 16.3346 20.6882 15.602C20.6882 14.8693 20.0942 14.2753 19.3615 14.2753Z" fill="#FFD12D"/>
<path d="M19.3615 25.7247H10.8309C10.0982 25.7247 9.50415 26.3188 9.50415 27.0514C9.50415 27.7841 10.0982 28.3781 10.8309 28.3781H19.3615C20.0942 28.3781 20.6882 27.7841 20.6882 27.0514C20.6882 26.3188 20.0942 25.7247 19.3615 25.7247Z" fill="#FFD12D"/>
<path d="M19.3615 37.2139H10.8309C10.0982 37.2139 9.50415 37.808 9.50415 38.5406C9.50415 39.2733 10.0982 39.8673 10.8309 39.8673H19.3615C20.0942 39.8673 20.6882 39.2733 20.6882 38.5406C20.6882 37.808 20.0942 37.2139 19.3615 37.2139Z" fill="#FFD12D"/>
<path d="M19.3615 48.7695H10.8309C10.0982 48.7695 9.50415 49.3635 9.50415 50.0962C9.50415 50.8288 10.0982 51.4229 10.8309 51.4229H19.3615C20.0942 51.4229 20.6882 50.8288 20.6882 50.0962C20.6882 49.3635 20.0942 48.7695 19.3615 48.7695Z" fill="#FFD12D"/>
<path d="M39.5937 18.9586L31.8325 15.403C31.1657 15.0989 30.3788 15.3929 30.0746 16.0597C29.7705 16.7266 30.0645 17.5135 30.7313 17.8176L38.4925 21.3732C39.1594 21.6773 39.9463 21.3833 40.2504 20.7164C40.5544 20.0496 40.2604 19.2627 39.5937 18.9586Z" fill="#FFD12D"/>
<path d="M65.995 22.0232L61.6567 16.9287C60.2861 15.2343 58.3033 14.1476 56.1376 13.9038C54.006 13.8144 51.9305 14.6005 50.393 16.0796L47.3814 18.733L48.5356 16.2255C50.2471 12.471 49.2255 9.87065 48.058 8.34494C47.1481 7.19171 45.9678 6.28027 44.6219 5.69154L38.5987 2.8524C35.1094 1.26036 30.5058 1.4461 28.0647 6.8325L26.3798 10.5075V7.9602C26.3798 2.09619 22.2803 0 18.4196 0H11.7861C7.93864 0 3.82587 2.08292 3.82587 7.9602V64.0398C3.82587 69.9038 7.92537 72 11.7861 72H18.4196C22.7446 72 25.0531 69.7711 25.9021 67.0514L65.1725 33.1675C66.8479 31.8763 67.9293 29.962 68.1708 27.8607C68.2332 25.7058 67.4526 23.6116 65.995 22.0232ZM23.7264 64.0398C23.7264 66.0166 23.0365 69.3466 18.4196 69.3466H11.7861C9.80928 69.3466 6.47927 68.6567 6.47927 64.0398V7.9602C6.47927 3.35655 9.79602 2.6534 11.7861 2.6534H18.4196C20.3963 2.6534 23.7264 3.34328 23.7264 7.9602V64.0398ZM30.0547 39.801L26.3798 38.1559V28.471L33.7031 31.8143C34.37 32.1184 35.1569 31.8244 35.461 31.1575C35.7652 30.4907 35.4711 29.7038 34.8043 29.3997L27.0431 25.8574C26.8337 25.7701 26.6051 25.7381 26.3798 25.7645V16.8358L30.4793 7.90713C32.3897 3.71476 35.6932 4.47098 37.4975 5.25373L43.5605 8.02653C44.5099 8.43698 45.3438 9.07496 45.9884 9.88391C47.0678 11.4166 47.1356 13.4434 46.1609 15.0448L33.0531 43.7015L26.4196 58.2952V41.0481L28.9536 42.2156C29.6204 42.5197 30.4073 42.2257 30.7114 41.5589C31.0154 40.892 30.7214 40.1051 30.0547 39.801ZM63.4478 31.1509L27.5473 62.1294L34.6186 46.6733L36.4494 48.7695C36.908 49.341 37.7431 49.4323 38.3144 48.9738C38.8859 48.5153 38.9773 47.6801 38.5187 47.1088C38.4897 47.0726 38.4587 47.038 38.4262 47.005L35.7728 44.0995L39.859 35.1841L45.0862 41.2471C45.5735 41.8149 46.4288 41.8803 46.9967 41.393C47.5645 40.9058 47.6298 40.0504 47.1426 39.4826L41.5439 32.995C41.399 32.8342 41.2167 32.7111 41.0133 32.6368L44.7546 24.4643L52.1575 18.0829C53.1688 17.0798 54.5408 16.5252 55.9652 16.5439C57.4076 16.7418 58.7162 17.4935 59.6136 18.6401L63.9652 23.6949C64.9667 24.7769 65.5171 26.2007 65.5041 27.675C65.3035 29.0594 64.5645 30.3086 63.4478 31.1509Z" fill="#FFD12D"/>
<path d="M55.8458 31.9469L50.2736 25.4859C49.7766 24.9476 48.9373 24.9139 48.3988 25.4109C47.8837 25.8864 47.8275 26.6804 48.2703 27.2239L53.8425 33.6849C54.3395 34.2233 55.1788 34.2568 55.7172 33.7598C56.2322 33.2844 56.2886 32.4903 55.8458 31.9469Z" fill="#FFD12D"/>
<path d="M15.1028 57.0083C12.5529 57.0083 10.4859 59.0753 10.4859 61.6252C10.4859 64.1751 12.5529 66.2421 15.1028 66.2421C17.6527 66.2421 19.7197 64.1751 19.7197 61.6252C19.7197 59.0753 17.6526 57.0083 15.1028 57.0083ZM15.1028 63.5887V63.6418C14.0184 63.6418 13.1393 62.7627 13.1393 61.6783C13.1393 60.5939 14.0184 59.7148 15.1028 59.7148C16.1872 59.7148 17.0663 60.5939 17.0663 61.6783C17.0375 62.742 16.1668 63.5891 15.1028 63.5887Z" fill="#FFD12D"/>
</svg>
